Coordinates
version=1
nRows=10
nColumns=46
inDegrees=yes

Units are S.I. units (second, meters, Newtons, ...)
Angles are in degrees.

endheader
time	pelvis_tilt	pelvis_list	pelvis_rotation	pelvis_tx	pelvis_ty	pelvis_tz	bb_angle	bb_tx	bb_ty	bb_tz	hip_flexion_r	hip_adduction_r	hip_rotation_r	knee_angle_r	knee_angle_r_beta	ankle_angle_r	subtalar_angle_r	mtp_angle_r	crank_angle_r	hip_flexion_l	hip_adduction_l	hip_rotation_l	knee_angle_l	knee_angle_l_beta	ankle_angle_l	subtalar_angle_l	mtp_angle_l	crank_angle_l	lumbar_extension	lumbar_bending	lumbar_rotation	arm_flex_r	arm_add_r	arm_rot_r	elbow_flex_r	pro_sup_r	wrist_flex_r	wrist_dev_r	arm_flex_l	arm_add_l	arm_rot_l	elbow_flex_l	pro_sup_l	wrist_flex_l	wrist_dev_l
      0.00500000	     -7.60806925	     -2.74858700	     -5.62860350	      0.18135679	      1.05061585	     -0.30554544	      0.00000000	      0.50000000	      0.00000000	      0.25000000	     78.58884388	      2.52516334	      2.88184238	     91.27800279	      1.59310168	     12.39755498	     -9.52590237	      0.00000000	      0.00000000	     46.71909908	    -11.76823711	     -0.45424291	     75.18484313	      1.31222306	    -19.46362847	    -14.49278634	      0.00000000	      0.00000000	    -58.60721528	     -2.99663272	      6.68951935	     89.54200691	     -4.48751056	     35.51918792	     21.51830025	     23.30988664	      0.00000000	      0.00000000	     89.07735484	     -0.88533883	     33.12858243	     22.39448973	     27.90024951	      0.00000000	      0.00000000
      0.01000000	     -7.61135225	     -2.76336256	     -5.65741553	      0.18136225	      1.05061174	     -0.30546305	      0.00000000	      0.50000000	      0.00000000	      0.25000000	     78.58541917	      2.57335073	      2.88678402	     91.27250943	      1.59300581	     12.42757661	     -9.49382277	      0.00000000	      0.00000000	     46.72870660	    -11.82453501	     -0.48055870	     75.19071411	      1.31232553	    -19.49014850	    -14.45174566	      0.00000000	      0.00000000	    -58.59745955	     -3.01439438	      6.69723825	     89.54105648	     -4.34452052	     34.79075663	     21.37685583	     23.81781398	      0.00000000	      0.00000000	     89.07294857	     -0.80151856	     32.52127518	     22.32933097	     28.23020819	      0.00000000	      0.00000000
      0.01500000	     -7.54741092	     -2.69973963	     -5.59885768	      0.18135448	      1.05076000	     -0.30562538	      0.00000000	      0.50000000	      0.00000000	      0.25000000	     78.53376815	      2.46444263	      2.90159607	     91.30180643	      1.59351714	     12.35893868	     -9.62118395	      0.00000000	      0.00000000	     46.65052342	    -11.69409494	     -0.49793099	     75.12555967	      1.31118837	    -19.71139960	    -14.73717733	      0.00000000	      0.00000000	    -58.69067114	     -3.03098530	      6.67621510	     89.53896403	     -4.40691461	     33.91141903	     21.52817087	     24.63043752	      0.00000000	      0.00000000	     89.05399638	     -0.66909969	     31.88952597	     22.62055857	     28.84001548	      0.00000000	      0.00000000
      0.02000000	     -7.53826353	     -2.86323310	     -5.63552316	      0.18119633	      1.05044677	     -0.30575338	      0.00000000	      0.50000000	      0.00000000	      0.25000000	     78.57166382	      2.52518434	      2.75608810	     91.32115138	      1.59385477	     12.37013984	     -9.45089783	      0.00000000	      0.00000000	     46.77200649	    -11.86480780	     -0.36284366	     75.30279707	      1.31428174	    -19.57209714	    -14.40748381	      0.00000000	      0.00000000	    -58.63043846	     -2.88861288	      6.75278053	     89.53826335	     -4.20019588	     33.73893454	     21.53514824	     23.80322056	      0.00000000	      0.00000000	     89.07530780	     -0.63154340	     31.88800970	     22.24809278	     27.33273686	      0.00000000	      0.00000000
      0.02500000	     -7.57131452	     -2.86168057	     -5.65556616	      0.18106952	      1.05058845	     -0.30562072	      0.00000000	      0.50000000	      0.00000000	      0.25000000	     78.63340136	      2.52708602	      2.74689991	     91.35950538	      1.59452417	     12.26603287	     -9.61604531	      0.00000000	      0.00000000	     46.80783604	    -11.86081141	     -0.35506133	     75.27853571	      1.31385830	    -19.65402471	    -14.47638539	      0.00000000	      0.00000000	    -58.59945178	     -2.88731434	      6.78173493	     89.53955385	     -4.29287477	     34.07912931	     21.35100175	     24.36288122	      0.00000000	      0.00000000	     89.06840338	     -0.58147957	     31.98436266	     22.08189081	     27.97364820	      0.00000000	      0.00000000
      0.03000000	     -7.56929619	     -2.87632952	     -5.65215768	      0.18108684	      1.05061537	     -0.30558786	      0.00000000	      0.50000000	      0.00000000	      0.25000000	     78.64053439	      2.52168448	      2.73695098	     91.38692462	      1.59500273	     12.26817905	     -9.57697720	      0.00000000	      0.00000000	     46.81116398	    -11.87384487	     -0.33927555	     75.27774368	      1.31384448	    -19.66945254	    -14.45194661	      0.00000000	      0.00000000	    -58.59161630	     -2.86284004	      6.81292789	     89.54325304	     -4.31139302	     34.20068488	     21.18310639	     24.97329326	      0.00000000	      0.00000000	     89.06500017	     -0.60415450	     31.93094743	     21.95531582	     28.66634416	      0.00000000	      0.00000000
      0.03500000	     -7.58423043	     -2.86838204	     -5.63898439	      0.18105919	      1.05055246	     -0.30557559	      0.00000000	      0.50000000	      0.00000000	      0.25000000	     78.67392716	      2.49772592	      2.73440342	     91.40497331	      1.59531774	     12.29142147	     -9.51269757	      0.00000000	      0.00000000	     46.84883301	    -11.85362791	     -0.31450985	     75.29685850	      1.31417810	    -19.67867304	    -14.39424042	      0.00000000	      0.00000000	    -58.56584348	     -2.85679358	      6.73183787	     89.53836264	     -4.02652476	     32.77588983	     20.84285577	     26.71107302	      0.00000000	      0.00000000	     89.05192303	     -0.47507476	     30.52791611	     21.66867917	     30.34396300	      0.00000000	      0.00000000
      0.04000000	     -7.58514970	     -2.93974060	     -5.67425447	      0.18103972	      1.05055113	     -0.30550294	      0.00000000	      0.50000000	      0.00000000	      0.25000000	     78.66651672	      2.56943639	      2.67480059	     91.38914708	      1.59504152	     12.22674585	     -9.61938170	      0.00000000	      0.00000000	     46.86687080	    -11.96040948	     -0.29306781	     75.33114849	      1.31477657	    -19.61993433	    -14.29815339	      0.00000000	      0.00000000	    -58.55542340	     -2.85597741	      6.91737393	     89.54162978	     -4.36632971	     34.04487314	     20.97136935	     25.90395764	      0.00000000	      0.00000000	     89.06865547	     -0.49007203	     31.80696315	     21.66727372	     29.62156144	      0.00000000	      0.00000000
      0.04500000	     -7.56370730	     -2.89368642	     -5.65665961	      0.18103142	      1.05055063	     -0.30555838	      0.00000000	      0.50000000	      0.00000000	      0.25000000	     78.66689115	      2.52353210	      2.71568278	     91.41325058	      1.59546220	     12.22631054	     -9.56078877	      0.00000000	      0.00000000	     46.84270026	    -11.89675201	     -0.31741190	     75.31811569	      1.31454911	    -19.68061752	    -14.37183417	      0.00000000	      0.00000000	    -58.55738040	     -2.88252667	      6.84289414	     89.54861955	     -4.85398932	     37.22708949	     21.07609156	     24.87470739	      0.00000000	      0.00000000	     89.07523660	     -0.88382669	     33.90122090	     21.85932580	     29.09647486	      0.00000000	      0.00000000
      0.05000000	     -7.53022251	     -2.89989016	     -5.64532040	      0.18104611	      1.05059998	     -0.30560183	      0.00000000	      0.50000000	      0.00000000	      0.25000000	     78.63747803	      2.49934482	      2.69902850	     91.42037168	      1.59558649	     12.18171936	     -9.55819729	      0.00000000	      0.00000000	     46.80891964	    -11.88796271	     -0.31099082	     75.32247208	      1.31462514	    -19.70380490	    -14.39876147	      0.00000000	      0.00000000	    -58.59455878	     -2.87048498	      6.78921643	     89.55238931	     -4.63262899	     36.58405072	     21.14813132	     23.92170141	      0.00000000	      0.00000000	     89.06431861	     -0.91292525	     33.63329091	     22.22409949	     27.81145080	      0.00000000	      0.00000000
